<?xml version="1.0" encoding="UTF-8"?>
<!-- Generator: Adobe Illustrator 19.2.1, SVG Export Plug-In . SVG Version: 6.00 Build 0)  -->
<svg xmlns="http://www.w3.org/2000/svg" xmlns:xlink="http://www.w3.org/1999/xlink" xmlns:dc="http://purl.org/dc/elements/1.1/" xmlns:cc="http://creativecommons.org/ns#" xmlns:rdf="http://www.w3.org/1999/02/22-rdf-syntax-ns#" version="1.1" id="DESIGNS" x="0px" y="0px" width="32px" height="32px" viewBox="0 0 32 32" style="enable-background:new 0 0 32 32;" xml:space="preserve">
<title property="dc:title">to copy</title><desc property="dc:description">An icon for "copy" from the Stone series on to [icon]. Downloaded from http://www.toicon.com/icons/stone_copy by 127.0.0.1 on 2017-07-10. Licensed CC-BY, see http://toicon.com/license/ for details.</desc>
<path class="stone_een" d="M10,6c0,0.552,0.448,1,1,1h10c0.552,0,1-0.448,1-1V3c0-0.552-0.448-1-1-1h-2.184  C18.403,0.837,17.304,0,16,0s-2.403,0.837-2.816,2H11c-0.552,0-1,0.448-1,1V6z M28,6v23c0,1.657-1.343,3-3,3H7c-1.657,0-3-1.343-3-3  V6c0-1.657,1.343-3,3-3h2v2H7C6.448,5,6,5.448,6,6v23c0,0.552,0.448,1,1,1h18c0.552,0,1-0.448,1-1V6c0-0.552-0.448-1-1-1h-2V3h2  C26.657,3,28,4.343,28,6z M23,6c0,1.103-0.897,2-2,2H11C9.897,8,9,7.103,9,6H7v23h18V6H23z M19.5,19h-7c-0.276,0-0.5-0.224-0.5-0.5  c0-0.276,0.224-0.5,0.5-0.5h7c0.276,0,0.5,0.224,0.5,0.5C20,18.776,19.776,19,19.5,19z M19.5,17h-7c-0.276,0-0.5-0.224-0.5-0.5  c0-0.276,0.224-0.5,0.5-0.5h7c0.276,0,0.5,0.224,0.5,0.5C20,16.776,19.776,17,19.5,17z M19.5,15h-7c-0.276,0-0.5-0.224-0.5-0.5  c0-0.276,0.224-0.5,0.5-0.5h7c0.276,0,0.5,0.224,0.5,0.5C20,14.776,19.776,15,19.5,15z" style="fill: #0B1719;"/>
<metadata><work rdf:about=""><format>image/svg+xml</format><type rdf:resource="http://purl.org/dc/dcmitype/StillImage"/><license rdf:resource="http://creativecommons.org/licenses/by/4.0/"/><attributionname>Shannon E Thomas</attributionname><attributionurl>http://www.toicon.com/icons/stone_copy</attributionurl></work></metadata></svg>